0
SECTION
2
HEADER
9
$INSUNITS
70
4
9
$ACADVER
1
AC1014
9
$HANDSEED
5
FFFF
0
ENDSEC
0
SECTION
2
TABLES
0
TABLE
2
VPORT
5
8
100
AcDbSymbolTable
0
ENDTAB
0
TABLE
2
LTYPE
5
5
100
AcDbSymbolTable
0
LTYPE
5
14
100
AcDbSymbolTableRecord
100
AcDbLinetypeTableRecord
2
BYBLOCK
70
0
0
LTYPE
5
15
100
AcDbSymbolTableRecord
100
AcDbLinetypeTableRecord
2
BYLAYER
70
0
0
LTYPE
5
16
100
AcDbSymbolTableRecord
100
AcDbLinetypeTableRecord
2
DASHED
70
0
3
Dashed __ __ __ __ __ __ __ __ __ __ __ __ __ _
72
65
73
2
40
0.75
49
0.5
74
0
49
-0.25
74
0
0
ENDTAB
0
TABLE
2
LAYER
5
2
100
AcDbSymbolTable
70
2
0
LAYER
5
50
100
AcDbSymbolTableRecord
100
AcDbLayerTableRecord
2
0
70
0
62
7
6
CONTINUOUS
0
ENDTAB
0
TABLE
2
STYLE
5
3
100
AcDbSymbolTable
70
1
0
STYLE
5
11
100
AcDbSymbolTableRecord
100
AcDbTextStyleTableRecord
2
STANDARD
70
0
0
ENDTAB
0
TABLE
2
VIEW
5
6
100
AcDbSymbolTable
70
0
0
ENDTAB
0
TABLE
2
UCS
5
7
100
AcDbSymbolTable
70
0
0
ENDTAB
0
TABLE
2
APPID
5
9
100
AcDbSymbolTable
70
2
0
APPID
5
12
100
AcDbSymbolTableRecord
100
AcDbRegAppTableRecord
2
ACAD
70
0
0
ENDTAB
0
TABLE
2
DIMSTYLE
5
A
100
AcDbSymbolTable
70
1
0
ENDTAB
0
TABLE
2
BLOCK_RECORD
5
1
100
AcDbSymbolTable
70
1
0
BLOCK_RECORD
5
1F
100
AcDbSymbolTableRecord
100
AcDbBlockTableRecord
2
*MODEL_SPACE
0
BLOCK_RECORD
5
1B
100
AcDbSymbolTableRecord
100
AcDbBlockTableRecord
2
*PAPER_SPACE
0
ENDTAB
0
ENDSEC
0
SECTION
2
BLOCKS
0
BLOCK
5
20
100
AcDbEntity
100
AcDbBlockBegin
2
*MODEL_SPACE
0
ENDBLK
5
21
100
AcDbEntity
100
AcDbBlockEnd
0
BLOCK
5
1C
100
AcDbEntity
100
AcDbBlockBegin
2
*PAPER_SPACE
0
ENDBLK
5
1D
100
AcDbEntity
100
AcDbBlockEnd
0
ENDSEC
0
SECTION
2
ENTITIES
0
LWPOLYLINE
5
100
100
AcDbEntity
8
0
100
AcDbPolyline
90
8
70
1
43
0.0
10
264.46249999999998
20
-92.224999999999937
42
0.41421356237310542
10
264.96250000000003
20
-92.724999999999923
10
277.96250000000009
20
-92.724999999999937
42
0.41421356237314705
10
278.46250000000009
20
-92.224999999999937
10
278.46250000000009
20
-79.224999999999923
42
0.4142135623732095
10
277.96250000000009
20
-78.724999999999952
10
264.96249999999998
20
-78.72500000000008
42
0.41421356237306384
10
264.46249999999998
20
-79.225000000000065
0
LWPOLYLINE
5
101
100
AcDbEntity
8
0
100
AcDbPolyline
90
8
70
1
43
0.0
10
2.5250000000000128
20
-16.024999999999814
42
0.41421356237309404
10
3.025000000000011
20
-16.524999999999814
10
16.024999999999984
20
-16.524999999999814
42
0.41421356237310025
10
16.524999999999981
20
-16.024999999999814
10
16.524999999999956
20
-3.0249999999999844
42
0.41421356237309082
10
16.024999999999991
20
-2.5250000000000172
10
3.0250000000000132
20
-2.5249999999999861
42
0.41421356237309309
10
2.5250000000000128
20
-3.0249999999999844
0
LWPOLYLINE
5
102
100
AcDbEntity
8
0
100
AcDbPolyline
90
8
70
1
43
0.0
10
107.0124999999999
20
-41.125000000000014
42
0.41421356237312101
10
106.51249999999997
20
-40.625
10
93.512500000000003
20
-40.624999999999893
42
0.4142135623730378
10
93.012499999999847
20
-41.125000000000014
10
93.012500000000017
20
-54.125000000000156
42
0.41421356237302737
10
93.51249999999996
20
-54.625000000000171
10
106.51249999999999
20
-54.625000000000135
42
0.41421356237304818
10
107.01249999999996
20
-54.125000000000156
0
LWPOLYLINE
5
103
100
AcDbEntity
8
0
100
AcDbPolyline
90
8
70
1
43
0.0
10
184.00000000000003
20
-21.575000000000188
10
196.99999999999989
20
-21.575000000000056
42
-0.41421356237306384
10
197.49999999999974
20
-22.07500000000001
10
197.49999999999986
20
-35.075000000000138
42
-0.41421356237292073
10
196.99999999999989
20
-35.57500000000018
10
184.00000000000009
20
-35.575000000000195
42
-0.41421356237305862
10
183.50000000000006
20
-35.075000000000138
10
183.50000000000017
20
-22.07500000000001
42
-0.41421356237311585
0
LWPOLYLINE
5
104
100
AcDbEntity
8
0
100
AcDbPolyline
90
8
70
1
43
0.0
10
235.10000000000008
20
-35.575000000000145
42
0.41421356237313928
10
235.60000000000008
20
-35.075000000000145
10
235.60000000000014
20
-22.075000000000028
42
0.41421356237294155
10
235.10000000000014
20
-21.575000000000088
10
222.10000000000008
20
-21.575000000000045
42
0.41421356237318868
10
221.59999999999999
20
-22.075000000000028
10
221.59999999999999
20
-35.075000000000138
42
0.41421356237321211
10
222.10000000000008
20
-35.574999999999925
0
LWPOLYLINE
5
105
100
AcDbEntity
8
0
100
AcDbPolyline
90
8
70
1
43
0.0
10
207.31250000000003
20
-54.125000000010104
10
207.31250000000003
20
-41.125000000000036
42
-0.41421356237299617
10
207.8125
20
-40.625000000000028
10
220.81250000000011
20
-40.625000000000149
42
-0.41421356237291812
10
221.3125
20
-41.125000000000036
10
221.3125
20
-54.125000000010104
42
-0.41421356237310542
10
220.81250000000011
20
-54.625000000010075
10
207.8125
20
-54.625000000010182
42
-0.41421356237303258
0
LWPOLYLINE
5
106
100
AcDbEntity
8
0
100
AcDbPolyline
90
8
70
1
43
0.0
10
202.55000000000001
20
-35.075000000000138
10
202.55000000000018
20
-22.07500000000001
42
-0.41421356237311585
10
203.05000000000004
20
-21.575000000000198
10
216.05000000000015
20
-21.575000000000006
42
-0.41421356237301959
10
216.55000000000007
20
-22.075000000000028
10
216.55000000000015
20
-35.075000000000138
42
-0.41421356237312101
10
216.05000000000015
20
-35.57500000000018
10
203.05000000000007
20
-35.575000000000145
42
-0.41421356237307422
0
LWPOLYLINE
5
107
100
AcDbEntity
8
0
100
AcDbPolyline
90
40
70
1
43
0.0
10
279.50675000000001
20
-58.624999999999979
10
273.00675000000007
20
-58.624999999999957
42
-0.41421356237316265
10
272.50675000000012
20
-58.124999999999936
10
272.50675000000001
20
-56.375000000000064
42
0.41421356237306384
10
272.25675000000001
20
-56.125000000000036
10
270.25675000000007
20
-56.125000000000043
42
-0.41421356237315748
10
269.50675000000001
20
-55.375000000000071
10
269.50675000000007
20
-54.875000000000028
42
0.41421356237326151
10
269.25675000000007
20
-54.625000000000043
10
259.38075000000003
20
-54.625000000000043
42
0.41421356237319906
10
259.13074999999998
20
-54.875000000000043
10
259.13075000000003
20
-55.375000000000007
42
-0.41421356237314705
10
258.38074999999998
20
-56.124999999999979
10
256.38075000000003
20
-56.125000000000007
42
0.41421356237328233
10
256.13075000000003
20
-56.375000000000028
10
256.13075000000003
20
-58.125000000000028
42
-0.41421356237312623
10
255.63075000000009
20
-58.625000000000057
10
249.13074999999995
20
-58.625000000000078
42
-0.41421356237311585
10
248.63075000000006
20
-58.125000000000142
10
248.63075000000006
20
-38.624999999999964
42
-0.41421356237311846
10
249.13074999999995
20
-38.125000000000028
10
255.63074999999998
20
-38.12499999999995
42
-0.41421356237301177
10
256.13074999999992
20
-38.624999999999993
10
256.13075000000003
20
-41.875
42
0.41421356237311585
10
256.38074999999998
20
-42.125
10
257.06875000000002
20
-42.125
42
0.41421356237295975
10
257.31875000000002
20
-41.875
10
257.31875000000002
20
-41.125
42
-0.41421356237313667
10
257.81875000000002
20
-40.625
10
270.81875000000002
20
-40.625000000000007
42
-0.41421356237300139
10
271.31875000000002
20
-41.125
10
271.31875000000002
20
-41.875000000000057
42
0.41421356237326151
10
271.56875000000002
20
-42.125000000000043
10
272.25675000000012
20
-42.12500000000005
42
0.41421356237294937
10
272.50675000000007
20
-41.875000000000057
10
272.50675000000007
20
-38.624999999999844
42
-0.41421356237318607
10
273.00675000000012
20
-38.12499999999978
10
279.50675000000007
20
-38.12499999999968
42
-0.41421356237308721
10
280.00675000000001
20
-38.624999999999602
10
280.00674999999995
20
-58.125
42
-0.41421356237307422
0
LWPOLYLINE
5
108
100
AcDbEntity
8
0
100
AcDbPolyline
90
8
70
1
43
0.0
10
21.575000000000024
20
-16.024999999999814
42
0.41421356237309503
10
22.075000000000028
20
-16.524999999999931
10
35.074999999999996
20
-16.524999999999824
42
0.41421356237308854
10
35.574999999999974
20
-16.024999999999821
10
35.57500000000001
20
-3.0249999999999888
42
0.41421356237308693
10
35.075000000000003
20
-2.5249999999998711
10
22.075000000000028
20
-2.5249999999999844
42
0.4142135623730957
10
21.575000000000028
20
-3.0249999999999844
0
LWPOLYLINE
5
109
100
AcDbEntity
8
0
100
AcDbPolyline
90
8
70
1
43
0.0
10
63.65000000000002
20
-35.575000000000124
42
0.41421356237307683
10
64.149999999999991
20
-35.075000000000117
10
64.150000000000006
20
-22.07500000000001
42
0.41421356237316526
10
63.65000000000002
20
-21.575000000000017
10
50.650000000000034
20
-21.57500000000018
42
0.41421356237310025
10
50.150000000000219
20
-22.074999999999999
10
50.15000000000002
20
-35.075000000000131
42
0.41421356237304302
10
50.650000000000013
20
-35.575000000000138
0
LWPOLYLINE
5
110
100
AcDbEntity
8
0
100
AcDbPolyline
90
8
70
1
43
0.0
10
282.72500000000008
20
-16.524999999999871
10
269.72500000000014
20
-16.525000000002322
42
-0.41421356237311713
10
269.22500000000008
20
-16.025000000002311
10
269.22500000000008
20
-3.0249999999999999
42
-0.41421356237312817
10
269.72500000000014
20
-2.5250000000000155
10
282.72500000000008
20
-2.5249999999999755
42
-0.41421356237301277
10
283.22500000000002
20
-3.0250000000000199
10
283.22500000000002
20
-16.024999999999846
42
-0.41421356237291684
0
LWPOLYLINE
5
111
100
AcDbEntity
8
0
100
AcDbPolyline
90
8
70
1
43
0.0
10
217.33750000000001
20
-78.724999999999994
10
230.33750000000003
20
-78.724999999999966
42
-0.41421356237323553
10
230.83750000000012
20
-79.224999999999923
10
230.83750000000009
20
-92.224999999999937
42
-0.4142135623730222
10
230.33750000000009
20
-92.724999999999909
10
217.33750000000009
20
-92.724999999999923
42
-0.41421356237292856
10
216.83750000000009
20
-92.224999999999881
10
216.83750000000009
20
-79.225000000000051
42
-0.41421356237285051
0
LWPOLYLINE
5
112
100
AcDbEntity
8
0
100
AcDbPolyline
90
8
70
1
43
0.0
10
164.44999999999996
20
-35.075000000000131
10
164.45000000000019
20
-22.07500000000001
42
-0.41421356237326673
10
164.95000000000005
20
-21.57500000000022
10
177.94999999999993
20
-21.574999999999935
42
-0.41421356237284268
10
178.44999999999996
20
-22.07500000000001
10
178.44999999999996
20
-35.075000000000131
42
-0.4142135623728635
10
177.94999999999993
20
-35.575000000000173
10
164.95000000000005
20
-35.575000000000173
42
-0.41421356237299095
0
LWPOLYLINE
5
113
100
AcDbEntity
8
0
100
AcDbPolyline
90
8
70
1
43
0.0
10
245.12499999999991
20
-3.0250000000000115
10
245.125
20
-16.024999999999842
42
-0.41421356237282447
10
244.62500000000009
20
-16.524999999999856
10
231.62499999999997
20
-16.524999999999849
42
-0.41421356237315615
10
231.125
20
-16.024999999999842
10
231.125
20
-3.025000000000011
42
-0.41421356237293994
10
231.62499999999997
20
-2.5250000000000252
10
244.62500000000009
20
-2.5250000000002375
42
-0.41421356237302087
0
LWPOLYLINE
5
114
100
AcDbEntity
8
0
100
AcDbPolyline
90
8
70
1
43
0.0
10
21.287500000000051
20
-22.074999999999999
10
21.287500000000051
20
-35.075000000000109
42
-0.41421356237308982
10
20.787500000000058
20
-35.575000000000109
10
7.7875000000000849
20
-35.575000000000109
42
-0.41421356237309176
10
7.2875000000000867
20
-35.075000000000109
10
7.2875000000002519
20
-22.074999999999999
42
-0.41421356237308915
10
7.7875000000000849
20
-21.575000000000173
10
20.787500000000058
20
-21.57500000000001
42
-0.41421356237310802
0
LWPOLYLINE
5
115
100
AcDbEntity
8
0
100
AcDbPolyline
90
8
70
1
43
0.0
10
277.96249999999998
20
-35.57500000000001
10
264.96249999999998
20
-35.575000000000024
42
-0.41421356237314444
10
264.46249999999998
20
-35.075000000000003
10
264.46249999999998
20
-22.074999999999999
42
-0.41421356237314189
10
264.96249999999998
20
-21.574999999999989
10
277.96249999999998
20
-21.574999999999903
42
-0.4142135623730222
10
278.46249999999992
20
-22.074999999999999
10
278.46250000000003
20
-35.075000000000003
42
-0.41421356237307422
0
LWPOLYLINE
5
116
100
AcDbEntity
8
0
100
AcDbPolyline
90
8
70
1
43
0.0
10
49.362500000000082
20
-54.625000000000156
10
36.362500000000097
20
-54.62499999999995
42
-0.41421356237308982
10
35.862500000000097
20
-54.125000000000121
10
35.862500000000111
20
-41.125000000000007
42
-0.41421356237308204
10
36.362500000000097
20
-40.625000000000014
10
49.362500000000082
20
-40.624999999999936
42
-0.41421356237307944
10
49.862500000000082
20
-41.125000000000014
10
49.862500000000054
20
-54.125000000000156
42
-0.41421356237307944
0
LWPOLYLINE
5
117
100
AcDbEntity
8
0
100
AcDbPolyline
90
8
70
1
43
0.0
10
198.28750000000011
20
-59.674999999999905
42
0.41421356237301177
10
197.78750000000002
20
-60.175000000000054
10
197.78750000000005
20
-73.174999999999869
42
0.41421356237310025
10
198.28750000000011
20
-73.674999999999855
10
211.28750000000019
20
-73.674999999999869
42
0.41421356237299095
10
211.78750000000008
20
-73.174999999999869
10
211.78750000000008
20
-60.175000000000054
42
0.41421356237307422
10
211.28750000000019
20
-59.67500000000004
0
LWPOLYLINE
5
118
100
AcDbEntity
8
0
100
AcDbPolyline
90
8
70
1
43
0.0
10
225.57500000000002
20
-16.524999999999828
42
0.41421356237304041
10
226.07500000000002
20
-16.024999999999842
10
226.0750000000001
20
-3.0250000000000115
42
0.41421356237294282
10
225.57500000000002
20
-2.5249999999998662
10
212.57499999999976
20
-2.525000000000035
42
0.41421356237314672
10
212.07499999999987
20
-3.025000000000011
10
212.07499999999985
20
-16.024999999999846
42
0.41421356237319257
10
212.57499999999993
20
-16.524999999999814
0
LWPOLYLINE
5
119
100
AcDbEntity
8
0
100
AcDbPolyline
90
8
70
1
43
0.0
10
111.77500000000003
20
-3.0249999999999977
42
0.41421356237310381
10
111.27500000000005
20
-2.5249999999998867
10
98.275000000000077
20
-2.5249999999999826
42
0.41421356237307455
10
97.775000000000034
20
-3.0249999999999932
10
97.775000000000091
20
-16.024999999999821
42
0.41421356237306511
10
98.275000000000077
20
-16.524999999999963
10
111.27500000000005
20
-16.524999999999835
42
0.41421356237315354
10
111.77500000000002
20
-16.024999999999828
0
LWPOLYLINE
5
120
100
AcDbEntity
8
0
100
AcDbPolyline
90
8
70
1
43
0.0
10
187.47500000000014
20
-16.524999999999828
10
174.47500000000014
20
-16.524999999999956
42
-0.41421356237291035
10
173.97500000000011
20
-16.024999999999835
10
173.97500000000019
20
-3.0250000000000066
42
-0.41421356237299845
10
174.47500000000014
20
-2.5250000000000217
10
187.47500000000014
20
-2.5250000000001571
42
-0.41421356237318996
10
187.97500000000011
20
-3.0250000000000066
10
187.97500000000011
20
-16.024999999999835
42
-0.41421356237294282
0
LWPOLYLINE
5
121
100
AcDbEntity
8
0
100
AcDbPolyline
90
8
70
1
43
0.0
10
169.21250000000001
20
-54.125000000000156
10
169.21249999999986
20
-41.125000000000028
42
-0.414213562373069
10
169.71250000000003
20
-40.624999999999901
10
182.71250000000006
20
-40.625000000000014
42
-0.41421356237313667
10
183.21250000000006
20
-41.125000000000028
10
183.21250000000003
20
-54.125000000000156
42
-0.41421356237290252
10
182.71250000000012
20
-54.625000000000142
10
169.71250000000003
20
-54.625000000000156
42
-0.41421356237311063
0
LWPOLYLINE
5
122
100
AcDbEntity
8
0
100
AcDbPolyline
90
8
70
1
43
0.0
10
193.52500000000018
20
-2.5250000000000083
10
206.52500000000003
20
-2.5249999999998152
42
-0.41421356237293244
10
207.02500000000001
20
-3.0250000000000066
10
207.02500000000009
20
-16.024999999999835
42
-0.41421356237290125
10
206.52500000000003
20
-16.524999999999839
10
193.52500000000018
20
-16.524999999999988
42
-0.4142135623730131
10
193.02500000000009
20
-16.024999999999835
10
193.02500000000009
20
-3.0250000000000066
42
-0.414213562373004
0
LWPOLYLINE
5
123
100
AcDbEntity
8
0
100
AcDbPolyline
90
8
70
1
43
0.0
10
54.124999999999872
20
-16.524999999999814
42
0.41421356237312756
10
54.624999999999886
20
-16.024999999999814
10
54.624999999999993
20
-3.0249999999999888
42
0.41421356237311291
10
54.124999999999872
20
-2.5249999999998698
10
41.124999999999893
20
-2.5249999999999906
42
0.41421356237307716
10
40.624999999999886
20
-3.0249999999999888
10
40.624999999999893
20
-16.024999999999814
42
0.41421356237306384
10
41.124999999999893
20
-16.524999999999814
0
LWPOLYLINE
5
124
100
AcDbEntity
8
0
100
AcDbPolyline
90
8
70
1
43
0.0
10
149.87499999999994
20
-79.225000000000051
10
149.87499999999991
20
-92.224999999999881
42
-0.41421356237297013
10
149.37499999999994
20
-92.724999999999923
10
136.37500000000006
20
-92.724999999999923
42
-0.41421356237306384
10
135.87500000000003
20
-92.224999999999881
10
135.87500000000006
20
-79.224999999999923
42
-0.41421356237298057
10
136.37500000000006
20
-78.724999999999895
10
149.37499999999994
20
-78.725000000000023
42
-0.41421356237302737
0
LWPOLYLINE
5
125
100
AcDbEntity
8
0
100
AcDbPolyline
90
8
70
1
43
0.0
10
7.7875000000000627
20
-78.724999999999852
42
0.41421356237311585
10
7.2875000000000467
20
-79.224999999999852
10
7.2875000000000467
20
-92.224999999999881
42
0.4142135623730443
10
7.7875000000000583
20
-92.724999999999866
10
20.787500000000048
20
-92.724999999999866
42
0.41421356237308721
10
21.287500000000051
20
-92.224999999999881
10
21.287500000000037
20
-79.225000000000023
42
0.41421356237309503
10
20.787500000000048
20
-78.725000000000051
0
LWPOLYLINE
5
126
100
AcDbEntity
8
0
100
AcDbPolyline
90
8
70
1
43
0.0
10
240.64999999999998
20
-35.075000000000145
42
0.41421356237329016
10
241.15000000000009
20
-35.575000000000095
10
254.1500000000002
20
-35.575000000000145
42
0.41421356237305079
10
254.65000000000018
20
-35.075000000000138
10
254.65000000000015
20
-22.075000000000028
42
0.41421356237315748
10
254.15000000000015
20
-21.575000000000038
10
241.15000000000009
20
-21.575000000000237
42
0.41421356237282447
10
240.65000000000026
20
-22.075000000000028
0
LWPOLYLINE
5
127
100
AcDbEntity
8
0
100
AcDbPolyline
90
8
70
1
43
0.0
10
269.22500000000025
20
-73.175000000000139
10
269.22500000000025
20
-60.175000000000054
42
-0.41421356237290774
10
269.72500000000014
20
-59.675000000000082
10
282.72500000000008
20
-59.675000000000004
42
-0.41421356237296497
10
283.22500000000002
20
-60.175000000000068
10
283.22500000000002
20
-73.174999999999869
42
-0.41421356237301699
10
282.72500000000008
20
-73.674999999999912
10
269.72500000000031
20
-73.675000000000153
42
-0.41421356237307422
0
LWPOLYLINE
5
128
100
AcDbEntity
8
0
100
AcDbPolyline
90
8
70
1
43
0.0
10
149.37499999999994
20
-16.5249999999998
10
136.37499999999994
20
-16.524999999999817
42
-0.41421356237310542
10
135.87499999999994
20
-16.024999999999828
10
135.87499999999983
20
-3.0249999999999977
42
-0.41421356237313212
10
136.37499999999994
20
-2.5249999999998627
10
149.37499999999994
20
-2.5250000000000372
42
-0.4142135623730287
10
149.87499999999994
20
-3.0250000000000021
10
149.87499999999994
20
-16.024999999999832
42
-0.41421356237303258
0
LWPOLYLINE
5
129
100
AcDbEntity
8
0
100
AcDbPolyline
90
8
70
1
43
0.0
10
126.85000000000015
20
-21.575000000000188
10
139.85000000000011
20
-21.57500000000001
42
-0.41421356237305862
10
140.35000000000005
20
-22.07500000000001
10
140.35000000000008
20
-35.075000000000131
42
-0.4142135623730846
10
139.85000000000008
20
-35.575000000000131
10
126.85000000000004
20
-35.575000000000131
42
-0.41421356237310281
10
126.35000000000008
20
-35.075000000000131
10
126.35000000000034
20
-22.07500000000001
42
-0.41421356237301959
0
LWPOLYLINE
5
130
100
AcDbEntity
8
0
100
AcDbPolyline
90
8
70
1
43
0.0
10
112.0624999999999
20
-54.125000000000156
42
0.41421356237302737
10
112.56249999999987
20
-54.624999999999943
10
125.56249999999999
20
-54.625000000000142
42
0.41421356237307944
10
126.06249999999996
20
-54.125000000000156
10
126.06250000000001
20
-41.125000000000028
42
0.41421356237304302
10
125.5625
20
-40.624999999999893
10
112.56249999999987
20
-40.625000000000028
42
0.4142135623730222
10
112.06249999999986
20
-41.125000000000014
0
LWPOLYLINE
5
131
100
AcDbEntity
8
0
100
AcDbPolyline
90
8
70
1
43
0.0
10
164.16250000000016
20
-41.125000000000028
10
164.16249999999994
20
-54.125000000000156
42
-0.41421356237310542
10
163.66250000000005
20
-54.625000000000135
10
150.66250000000008
20
-54.625000000000135
42
-0.41421356237298579
10
150.16250000000014
20
-54.125000000000156
10
150.16250000000014
20
-41.125000000000028
42
-0.41421356237310542
10
150.66250000000002
20
-40.625000000000043
10
163.66250000000014
20
-40.624999999999872
42
-0.41421356237301177
0
LWPOLYLINE
5
132
100
AcDbEntity
8
0
100
AcDbPolyline
90
8
70
1
43
0.0
10
201.7625000000001
20
-54.625000000000156
42
0.41421356237294937
10
202.26250000000007
20
-54.125000000000156
10
202.26249999999999
20
-41.125000000000036
42
0.41421356237316265
10
201.7625000000001
20
-40.625000000000036
10
188.76249999999999
20
-40.624999999999936
42
0.41421356237306384
10
188.26249999999985
20
-41.125000000000028
10
188.26249999999999
20
-54.125000000000156
42
0.41421356237298057
10
188.76249999999999
20
-54.625000000000163
0
LWPOLYLINE
5
133
100
AcDbEntity
8
0
100
AcDbPolyline
90
8
70
1
43
0.0
10
23.16875000000001
20
-54.62499999999995
10
5.4062500000000124
20
-54.624999999999851
42
-0.41421356237308915
10
4.9062500000000426
20
-54.124999999999872
10
4.9062500000000417
20
-41.124999999999865
42
-0.41421356237312168
10
5.4062500000000142
20
-40.624999999999851
10
23.16875000000001
20
-40.625000000000014
42
-0.41421356237310802
10
23.668750000000021
20
-41.125000000000007
10
23.668749999999857
20
-54.125000000000121
42
-0.41421356237306384
0
LWPOLYLINE
5
134
100
AcDbEntity
8
0
100
AcDbPolyline
90
8
70
1
43
0.0
10
159.68749999999986
20
-73.174999999999869
42
0.41421356237306384
10
160.18749999999983
20
-73.674999999999869
10
173.18749999999997
20
-73.674999999999869
42
0.41421356237278806
10
173.68749999999983
20
-73.174999999999869
10
173.68749999999991
20
-60.175000000000054
42
0.41421356237318868
10
173.18749999999991
20
-59.67500000000009
10
160.18749999999986
20
-59.674999999999905
42
0.41421356237311585
10
159.68749999999974
20
-60.175000000000054
0
LWPOLYLINE
5
135
100
AcDbEntity
8
0
100
AcDbPolyline
90
40
70
1
43
0.0
10
15.493249999999996
20
-75.175000000000011
10
13.493249999999994
20
-75.175000000000026
42
0.41421356237307161
10
13.243249999999993
20
-75.425000000000026
10
13.243249999999993
20
-77.175000000000026
42
-0.41421356237310153
10
12.74325000000001
20
-77.674999999999983
10
6.2432499999999891
20
-77.674999999999997
42
-0.41421356237310608
10
5.7432500000000104
20
-77.175000000000026
10
5.7432499999999909
20
-57.675000000000018
42
-0.41421356237310542
10
6.243249999999998
20
-57.175000000000011
10
12.743250000000002
20
-57.175000000000004
42
-0.41421356237309631
10
13.243250000000002
20
-57.674999999999997
10
13.24325
20
-60.925000000000004
42
0.41421356237310281
10
13.493249999999994
20
-61.17499999999999
10
14.18125
20
-61.174999999999997
42
0.41421356237307422
10
14.431249999999995
20
-60.925000000000004
10
14.431249999999993
20
-60.174999999999997
42
-0.41421356237308982
10
14.93125
20
-59.675000000000004
10
27.931249999999999
20
-59.675000000000011
42
-0.41421356237311063
10
28.431249999999999
20
-60.174999999999997
10
28.431250000000002
20
-60.925000000000011
42
0.41421356237311585
10
28.681249999999999
20
-61.175000000000011
10
29.369250000000005
20
-61.175000000000011
42
0.41421356237311585
10
29.619250000000008
20
-60.925000000000011
10
29.619250000000005
20
-57.674999999999983
42
-0.41421356237308721
10
30.11924999999998
20
-57.175000000000011
10
36.619250000000036
20
-57.175000000000011
42
-0.41421356237307683
10
37.119250000000015
20
-57.674999999999983
10
37.119250000000001
20
-77.174999999999983
42
-0.41421356237308982
10
36.619250000000008
20
-77.674999999999983
10
30.119250000000001
20
-77.674999999999983
42
-0.41421356237307944
10
29.619250000000008
20
-77.174999999999997
10
29.619250000000008
20
-75.425000000000026
42
0.41421356237313145
10
29.369250000000008
20
-75.175000000000026
10
27.369250000000001
20
-75.175000000000026
42
-0.41421356237309503
10
26.619250000000001
20
-74.425000000000026
10
26.619250000000008
20
-73.924999999999983
42
0.41421356237304818
10
26.369250000000001
20
-73.674999999999983
10
16.493250000000003
20
-73.674999999999983
42
0.41421356237311585
10
16.243250000000007
20
-73.924999999999983
10
16.24325000000001
20
-74.425000000000026
42
-0.41421356237308898
0
LWPOLYLINE
5
136
100
AcDbEntity
8
0
100
AcDbPolyline
90
8
70
1
43
0.0
10
92.225000000000023
20
-16.524999999999835
42
0.41421356237295848
10
92.725000000000051
20
-16.024999999999821
10
92.724999999999966
20
-3.0249999999999932
42
0.41421356237307777
10
92.225000000000037
20
-2.5250000000000128
10
79.225000000000051
20
-2.524999999999995
42
0.41421356237307716
10
78.725000000000051
20
-3.0249999999999932
10
78.725000000000051
20
-16.024999999999828
42
0.41421356237311324
10
79.225000000000051
20
-16.524999999999832
0
LWPOLYLINE
5
137
100
AcDbEntity
8
0
100
AcDbPolyline
90
8
70
1
43
0.0
10
158.90000000000009
20
-35.575000000000138
42
0.41421356237305079
10
159.40000000000009
20
-35.075000000000131
10
159.40000000000006
20
-22.07500000000001
42
0.41421356237303258
10
158.90000000000009
20
-21.575000000000038
10
145.89999999999998
20
-21.575000000000195
42
0.414213562373069
10
145.40000000000009
20
-22.07500000000001
10
145.39999999999986
20
-35.075000000000131
42
0.41421356237310802
10
145.89999999999998
20
-35.575000000000145
0
LWPOLYLINE
5
138
100
AcDbEntity
8
0
100
AcDbPolyline
90
8
70
1
43
0.0
10
74.462499999999977
20
-40.624999999999922
42
0.4142135623730846
10
73.962499999999864
20
-41.125000000000014
10
73.962499999999977
20
-54.125000000000156
42
0.41421356237309503
10
74.462499999999977
20
-54.625000000000156
10
87.462499999999977
20
-54.625000000000156
42
0.41421356237299617
10
87.962499999999977
20
-54.125000000000156
10
87.962499999999977
20
-41.125000000000014
42
0.41421356237311585
10
87.462499999999963
20
-40.625000000000007
0
LWPOLYLINE
5
139
100
AcDbEntity
8
0
100
AcDbPolyline
90
8
70
1
43
0.0
10
64.437499999999957
20
-73.174999999999841
42
0.41421356237312101
10
64.937499999999972
20
-73.674999999999955
10
77.937499999999929
20
-73.674999999999855
42
0.41421356237312101
10
78.437499999999872
20
-73.174999999999841
10
78.437499999999901
20
-60.175000000000054
42
0.41421356237313667
10
77.937499999999929
20
-59.674999999999905
10
64.937499999999972
20
-59.675000000000054
42
0.41421356237314189
10
64.437499999999929
20
-60.175000000000054
0
LWPOLYLINE
5
140
100
AcDbEntity
8
0
100
AcDbPolyline
90
8
70
1
43
0.0
10
263.6750000000003
20
-16.525000000003448
10
250.67500000000018
20
-16.52499999999992
42
-0.41421356237286222
10
250.17500000000013
20
-16.024999999999846
10
250.17500000000027
20
-3.0250000000000155
42
-0.41421356237304918
10
250.67500000000018
20
-2.5249999999999808
10
263.67500000000013
20
-2.5249999999999968
42
-0.41421356237315649
10
264.17500000000024
20
-3.0250000000000021
10
264.17500000000024
20
-16.025000000003455
42
-0.41421356237304302
0
LWPOLYLINE
5
141
100
AcDbEntity
8
0
100
AcDbPolyline
90
8
70
1
43
0.0
10
117.32499999999987
20
-2.5249999999998849
42
0.41421356237300266
10
116.82499999999985
20
-3.0249999999999977
10
116.8249999999999
20
-16.024999999999832
42
0.41421356237316009
10
117.3249999999999
20
-16.524999999999814
10
130.32499999999993
20
-16.524999999999807
42
0.4142135623730781
10
130.82499999999993
20
-16.024999999999828
10
130.8249999999999
20
-3.0249999999999977
42
0.41421356237307355
10
130.32499999999993
20
-2.5249999999999955
0
LWPOLYLINE
5
142
100
AcDbEntity
8
0
100
AcDbPolyline
90
8
70
1
43
0.0
10
31.600000000000037
20
-21.57500000000001
10
44.600000000000009
20
-21.575000000000184
42
-0.41421356237307683
10
45.099999999999994
20
-22.074999999999999
10
45.100000000000122
20
-35.075000000000109
42
-0.41421356237312101
10
44.600000000000001
20
-35.575000000000109
10
31.600000000000037
20
-35.574999999999939
42
-0.41421356237309503
10
31.10000000000003
20
-35.075000000000109
10
31.100000000000033
20
-22.074999999999999
42
-0.41421356237309243
0
LWPOLYLINE
5
143
100
AcDbEntity
8
0
100
AcDbPolyline
90
8
70
1
43
0.0
10
58.887499999999939
20
-73.674999999999869
10
45.887499999999974
20
-73.674999999999812
42
-0.41421356237307944
10
45.387499999999925
20
-73.174999999999841
10
45.387499999999925
20
-60.175000000000018
42
-0.4142135623730846
10
45.887499999999974
20
-59.675000000000054
10
58.887499999999939
20
-59.675000000000082
42
-0.41421356237307422
10
59.387499999999889
20
-60.175000000000054
10
59.387499999999932
20
-73.174999999999841
42
-0.41421356237311063
0
LWPOLYLINE
5
144
100
AcDbEntity
8
0
100
AcDbPolyline
90
8
70
1
43
0.0
10
140.63750000000002
20
-73.174999999999869
10
140.63749999999993
20
-60.175000000000054
42
-0.41421356237316787
10
141.13750000000013
20
-59.67499999999994
10
154.13749999999996
20
-59.675000000000026
42
-0.41421356237304302
10
154.63750000000005
20
-60.175000000000054
10
154.6374999999999
20
-73.174999999999869
42
-0.41421356237302737
10
154.13749999999996
20
-73.674999999999869
10
141.13749999999999
20
-73.674999999999883
42
-0.41421356237299095
0
LWPOLYLINE
5
145
100
AcDbEntity
8
0
100
AcDbPolyline
90
8
70
1
43
0.0
10
243.53125000000009
20
-59.67500000000009
42
0.41421356237302737
10
243.03125
20
-60.175000000000054
10
243.03125
20
-73.174999999999898
42
0.41421356237318868
10
243.53125000000009
20
-73.674999999999841
10
256.53125
20
-73.674999999999997
42
0.41421356237304818
10
257.03125
20
-73.174999999999983
10
257.03124999999994
20
-60.175000000000054
42
0.41421356237310025
10
256.53125
20
-59.675000000000047
0
LWPOLYLINE
5
146
100
AcDbEntity
8
0
100
AcDbPolyline
90
8
70
1
43
0.0
10
31.100000000000065
20
-92.224999999999881
10
31.100000000000065
20
-79.224999999999881
42
-0.41421356237311585
10
31.600000000000055
20
-78.724999999999881
10
44.600000000000001
20
-78.724999999999937
42
-0.41421356237311063
10
45.099999999999987
20
-79.225000000000023
10
45.100000000000151
20
-92.224999999999895
42
-0.41421356237294937
10
44.600000000000001
20
-92.724999999999866
10
31.600000000000055
20
-92.724999999999852
42
-0.41421356237308721
0
LWPOLYLINE
5
147
100
AcDbEntity
8
0
100
AcDbPolyline
90
8
70
1
43
0.0
10
60.175000000000061
20
-2.5249999999998707
42
0.41421356237313406
10
59.67499999999994
20
-3.0249999999999888
10
59.675000000000047
20
-16.024999999999814
42
0.41421356237313273
10
60.175000000000054
20
-16.524999999999828
10
73.175000000000139
20
-16.524999999999821
42
0.41421356237307033
10
73.675000000000139
20
-16.024999999999821
10
73.675000000000196
20
-3.0249999999999932
42
0.41421356237310381
10
73.175000000000139
20
-2.5249999999999857
0
LWPOLYLINE
5
148
100
AcDbEntity
8
0
100
AcDbPolyline
90
8
70
1
43
0.0
10
54.912500000000065
20
-92.224999999999881
10
54.912500000000065
20
-79.224999999999881
42
-0.41421356237314705
10
55.412500000000065
20
-78.724999999999895
10
68.41250000000008
20
-78.725000000000023
42
-0.41421356237314705
10
68.91250000000008
20
-79.225000000000023
10
68.912500000000122
20
-92.224999999999881
42
-0.41421356237309503
10
68.412500000000065
20
-92.724999999999866
10
55.412500000000065
20
-92.724999999999866
42
-0.41421356237302737
0
LWPOLYLINE
5
149
100
AcDbEntity
8
0
100
AcDbPolyline
90
8
70
1
43
0.0
10
239.8625000000001
20
-54.625000000010118
10
226.8625000000003
20
-54.625000000010132
42
-0.4142135623730846
10
226.36250000000032
20
-54.125000000010104
10
226.36250000000013
20
-41.125000000000036
42
-0.41421356237291812
10
226.8625000000003
20
-40.624999999999922
10
239.86250000000013
20
-40.624999999999936
42
-0.41421356237300139
10
240.3625000000001
20
-41.125000000000036
10
240.36250000000001
20
-54.125000000010104
42
-0.41421356237301699
0
LWPOLYLINE
5
150
100
AcDbEntity
8
0
100
AcDbPolyline
90
8
70
1
43
0.0
10
103.03750000000002
20
-59.674999999999898
42
0.41421356237317308
10
102.53749999999985
20
-60.175000000000054
10
102.53749999999998
20
-73.174999999999869
42
0.4142135623730378
10
103.03749999999997
20
-73.674999999999869
10
116.03750000000016
20
-73.674999999999869
42
0.41421356237314189
10
116.53750000000004
20
-73.174999999999869
10
116.53750000000009
20
-60.175000000000054
42
0.41421356237300139
10
116.03750000000016
20
-59.675000000000004
0
LWPOLYLINE
5
151
100
AcDbEntity
8
0
100
AcDbPolyline
90
8
70
1
43
0.0
10
135.08749999999998
20
-73.674999999999869
42
0.4142135623730378
10
135.58749999999998
20
-73.174999999999869
10
135.58749999999998
20
-60.175000000000054
42
0.41421356237293894
10
135.08749999999998
20
-59.675000000000011
10
122.08750000000002
20
-59.67499999999994
42
0.41421356237311585
10
121.58749999999986
20
-60.175000000000054
10
121.58750000000001
20
-73.174999999999869
42
0.41421356237296497
10
122.08749999999998
20
-73.674999999999869
0
LWPOLYLINE
5
152
100
AcDbEntity
8
0
100
AcDbPolyline
90
8
70
1
43
0.0
10
54.912500000000115
20
-54.125000000000156
42
0.41421356237312101
10
55.412500000000122
20
-54.624999999999979
10
68.41250000000008
20
-54.625000000000142
42
0.41421356237304818
10
68.912500000000051
20
-54.125000000000156
10
68.91250000000008
20
-41.125000000000014
42
0.41421356237310025
10
68.41250000000008
20
-40.624999999999893
10
55.412500000000122
20
-40.625000000000028
42
0.41421356237312623
10
54.912500000000151
20
-41.125000000000014
0
LWPOLYLINE
5
153
100
AcDbEntity
8
0
100
AcDbPolyline
90
8
70
1
43
0.0
10
131.61250000000018
20
-40.624999999999893
10
144.61250000000013
20
-40.625000000000014
42
-0.4142135623730378
10
145.11250000000013
20
-41.125000000000014
10
145.11250000000015
20
-54.125000000000156
42
-0.41421356237306384
10
144.61250000000015
20
-54.625000000000142
10
131.61250000000013
20
-54.625000000000142
42
-0.4142135623730846
10
131.11250000000015
20
-54.125000000000156
10
131.11250000000007
20
-41.125000000000028
42
-0.41421356237310542
0
LWPOLYLINE
5
154
100
AcDbEntity
8
0
100
AcDbPolyline
90
8
70
1
43
0.0
10
97.48750000000004
20
-60.175000000000054
42
0.41421356237304302
10
96.987500000000168
20
-59.675000000000082
10
83.987500000000097
20
-59.675000000000018
42
0.41421356237307944
10
83.487500000000153
20
-60.175000000000054
10
83.487500000000097
20
-73.174999999999869
42
0.41421356237305862
10
83.987500000000097
20
-73.674999999999855
10
96.987500000000111
20
-73.674999999999869
42
0.414213562373069
10
97.48750000000004
20
-73.174999999999869
0
LWPOLYLINE
5
155
100
AcDbEntity
8
0
100
AcDbPolyline
90
8
70
1
43
0.0
10
240.65000000000003
20
-92.224999999999937
42
0.41421356237310542
10
241.15000000000009
20
-92.724999999999923
10
254.15000000000009
20
-92.724999999999923
42
0.4142135623730534
10
254.65000000000003
20
-92.224999999999937
10
254.65000000000003
20
-79.224999999999923
42
0.41421356237307422
10
254.15000000000015
20
-78.724999999999852
10
241.15000000000009
20
-78.725000000000065
42
0.41421356237300661
10
240.65000000000009
20
-79.225000000000065
0
LWPOLYLINE
5
156
100
AcDbEntity
8
0
100
AcDbPolyline
90
8
70
1
43
0.0
10
107.80000000000004
20
-21.57500000000018
10
120.80000000000005
20
-21.575000000000031
42
-0.41421356237304563
10
121.30000000000004
20
-22.07500000000001
10
121.30000000000007
20
-35.075000000000131
42
-0.41421356237311063
10
120.80000000000005
20
-35.575000000000131
10
107.80000000000004
20
-35.575000000000159
42
-0.41421356237303258
10
107.30000000000015
20
-35.075000000000117
10
107.30000000000024
20
-22.07500000000001
42
-0.41421356237312362
0
LWPOLYLINE
5
157
100
AcDbEntity
8
0
100
AcDbPolyline
90
8
70
1
43
0.0
10
178.73750000000001
20
-73.174999999999869
10
178.73749999999995
20
-60.175000000000054
42
-0.4142135623730378
10
179.23749999999995
20
-59.67499999999994
10
192.23750000000018
20
-59.674999999999947
42
-0.41421356237300661
10
192.73750000000013
20
-60.175000000000054
10
192.73750000000013
20
-73.174999999999869
42
-0.41421356237314189
10
192.23750000000021
20
-73.674999999999898
10
179.23749999999995
20
-73.674999999999812
42
-0.41421356237309503
0
LWPOLYLINE
5
158
100
AcDbEntity
8
0
100
AcDbPolyline
90
8
70
1
43
0.0
10
168.9250000000001
20
-3.0250000000000021
10
168.92500000000013
20
-16.024999999999832
42
-0.41421356237306384
10
168.42500000000013
20
-16.524999999999793
10
155.42500000000013
20
-16.524999999999864
42
-0.41421356237309892
10
154.9250000000001
20
-16.024999999999832
10
154.9250000000001
20
-3.0250000000000021
42
-0.41421356237303586
10
155.42500000000013
20
-2.5250000000000088
10
168.42500000000013
20
-2.5250000000000314
42
-0.41421356237309437
0
LWPOLYLINE
5
159
100
AcDbEntity
8
0
100
AcDbPolyline
90
8
70
1
43
0.0
10
88.749999999999915
20
-21.57500000000018
10
101.7499999999999
20
-21.575000000000017
42
-0.41421356237308721
10
102.24999999999987
20
-22.07500000000001
10
102.24999999999987
20
-35.075000000000117
42
-0.41421356237314189
10
101.7499999999999
20
-35.575000000000131
10
88.749999999999915
20
-35.575000000000131
42
-0.41421356237314966
10
88.249999999999915
20
-35.075000000000117
10
88.250000000000043
20
-22.07500000000001
42
-0.41421356237309503
0
LWPOLYLINE
5
160
100
AcDbEntity
8
0
100
AcDbPolyline
90
8
70
1
43
0.0
10
217.33750000000009
20
-59.67499999999994
10
230.33750000000001
20
-59.675000000000011
42
-0.41421356237299095
10
230.83749999999995
20
-60.175000000000054
10
230.83749999999981
20
-73.174999999999869
42
-0.41421356237300139
10
230.33750000000003
20
-73.674999999999898
10
217.33750000000009
20
-73.674999999999869
42
-0.41421356237300661
10
216.83750000000006
20
-73.174999999999869
10
216.83750000000003
20
-60.175000000000054
42
-0.41421356237300661
0
LWPOLYLINE
5
161
100
AcDbEntity
8
0
100
AcDbPolyline
90
8
70
1
43
0.0
10
83.200000000000045
20
-22.074999999999999
10
83.199999999999932
20
-35.075000000000117
42
-0.41421356237317047
10
82.700000000000017
20
-35.575000000000124
10
69.699999999999903
20
-35.575000000000117
42
-0.41421356237309764
10
69.199999999999889
20
-35.075000000000131
10
69.200000000000102
20
-22.07500000000001
42
-0.4142135623730846
10
69.699999999999889
20
-21.575000000000195
10
82.700000000000031
20
-21.575000000000042
42
-0.41421356237314966
0
LWPOLYLINE
5
162
100
AcDbEntity
8
0
100
AcDbPolyline
90
40
70
1
43
0.0
10
2.1888046000000121
20
-0.16310000000000741
42
0.41421356237309748
10
0.18880459999999405
20
-2.1631000000000102
10
0.18880460000000099
20
-93.089145000000002
42
0.4142135623731355
10
2.188804600000013
20
-95.08914500000003
10
78.124999999999659
20
-95.089145000000016
42
0.41421356237307422
10
78.624999999999673
20
-94.589145000000002
10
78.624999999999659
20
-91.525001464840088
42
-0.41421356237311585
10
79.124999999999659
20
-91.025001464840074
10
81.47500000000008
20
-91.025001464840074
42
0.41421356237309503
10
81.97500000000008
20
-90.525001464840074
10
81.97500000000008
20
-75.725000000000065
42
-0.41421356237309503
10
82.475000000000051
20
-75.225000000000094
10
88.975000000000151
20
-75.22500000000008
42
-0.41421356237308982
10
89.475000000000136
20
-75.725000000000023
10
89.475000000000108
20
-90.525001464840074
42
0.41421356237312623
10
89.975000000000094
20
-91.025001464840074
10
92.324999999999605
20
-91.025001464840074
42
-0.41421356237307422
10
92.824999999999619
20
-91.525001464840088
10
92.824999999999619
20
-94.589145000000002
42
0.4142135623730534
10
93.324999999999619
20
-95.089145000000016
10
192.44399999999959
20
-95.089145000000016
42
0.4142135623732407
10
192.94399999999956
20
-94.589145000000002
10
192.94399999999962
20
-91.525001464840159
42
-0.4142135623730222
10
193.44399999999956
20
-91.025001464840173
10
195.77500000000009
20
-91.025001464840173
42
0.41421356237301177
10
196.27500000000003
20
-90.525001464840074
10
196.27500000000012
20
-75.724999999999739
42
-0.41421356237301699
10
196.77500000000009
20
-75.224999999999739
10
203.27500000000009
20
-75.22499999999971
42
-0.41421356237307944
10
203.77500000000009
20
-75.724999999999767
10
203.77500000000003
20
-90.525001464840074
42
0.41421356237306384
10
204.27500000000006
20
-91.025001464840102
10
206.64399999999947
20
-91.025001464840159
42
-0.41421356237309503
10
207.14399999999955
20
-91.525001464840159
10
207.14399999999955
20
-94.589145000000002
42
0.4142135623730222
10
207.64399999999952
20
-95.089145000000002
10
283.56272000000001
20
-95.089145000000016
42
0.41421356237309764
10
285.56272000000001
20
-93.089145000000002
10
285.56272000000001
20
-2.1631000000000178
42
0.4142135623730836
10
283.56272000000001
20
-0.16309999999996105
0
ENDSEC
0
SECTION
2
OBJECTS
0
DICTIONARY
5
C
100
AcDbDictionary
3
ACAD_GROUP
350
D
3
ACAD_MLINESTYLE
350
17
0
DICTIONARY
5
D
100
AcDbDictionary
0
DICTIONARY
5
1A
330
C
100
AcDbDictionary
0
DICTIONARY
5
17
100
AcDbDictionary
0
ENDSEC
0
EOF
